<?xml version="1.0"?>
<svg xmlns="http://www.w3.org/2000/svg" height="512px" viewBox="0 -1 499 499" width="512px"><g><path d="m307.429688 339.613281 10.535156-16.003906 13.359375 8.796875-10.539063 16zm0 0" data-original="#000000" class="active-path" data-old_color="#000000" fill="#C3935B"/><path d="m323.234375 315.578125 63.269531-96.003906 13.367188 8.808593-63.269532 96.003907zm0 0" data-original="#000000" class="active-path" data-old_color="#000000" fill="#C3935B"/><path d="m60.386719 169.601562 13.359375-8.8125 8.8125 13.355469-13.363282 8.8125zm0 0" data-original="#000000" class="active-path" data-old_color="#000000" fill="#C3935B"/><path d="m95.601562 223.042969 13.359376-8.8125 8.8125 13.355469-13.363282 8.8125zm0 0" data-original="#000000" class="active-path" data-old_color="#000000" fill="#C3935B"/><path d="m77.992188 196.324219 13.363281-8.816407 8.808593 13.355469-13.363281 8.816407zm0 0" data-original="#000000" class="active-path" data-old_color="#000000" fill="#C3935B"/><path d="m413.9375 0h-328.867188l-85.070312 136.121094 97.832031 148.429687c-5.878906 6.9375-14.542969 11.449219-24.328125 11.449219v16c17.648438 0 32 14.351562 32 32h16c0-6.023438 1.777344-11.609375 4.679688-16.425781l111.007812 168.425781h24.617188l237.191406-359.878906zm-234.632812 144h140.398437l-68.726563 336h-2.945312zm84.640624-128h131.125l-65.566406 104.902344zm51.117188 112h-131.117188l65.558594-104.902344zm-145.558594-7.097656-65.558594-104.902344h131.125zm-14.441406 7.097656h-131.125l65.566406-104.902344zm180.96875 16h138.617188l-200.992188 304.960938zm7.914062-16 65.558594-104.902344 65.566406 104.902344zm-319.585937 16h138.617187l62.375 304.960938-87.472656-132.722657c4.640625-2.613281 9.921875-4.238281 15.625-4.238281v-16c-17.648437 0-32-14.351562-32-32h-16c0 .929688-.191406 1.792969-.273437 2.695312zm75.625 160c5.359375-3.558594 9.960937-8.160156 13.519531-13.519531 3.558594 5.359375 8.160156 9.960937 13.519532 13.519531-5.359376 3.558594-9.960938 8.160156-13.519532 13.519531-3.558594-5.359375-8.160156-9.960937-13.519531-13.519531zm0 0" data-original="#000000" class="active-path" data-old_color="#000000" fill="#C3935B"/><path d="m266.101562 246.398438 3.207032-15.675782 15.667968 3.207032-3.207031 15.675781zm0 0" data-original="#000000" class="active-path" data-old_color="#000000" fill="#C3935B"/><path d="m272.523438 215.050781 3.199218-15.667969 15.679688 3.203126-3.203125 15.667968zm0 0" data-original="#000000" class="active-path" data-old_color="#000000" fill="#C3935B"/><path d="m278.898438 183.699219 3.203124-15.675781 15.667969 3.203124-3.203125 15.675782zm0 0" data-original="#000000" class="active-path" data-old_color="#000000" fill="#C3935B"/><path d="m168.226562 67.488281 8.875-13.3125 13.3125 8.875-8.875 13.3125zm0 0" data-original="#000000" class="active-path" data-old_color="#000000" fill="#C3935B"/><path d="m185.972656 40.867188 8.875-13.3125 13.3125 8.875-8.875 13.3125zm0 0" data-original="#000000" class="active-path" data-old_color="#000000" fill="#C3935B"/><path d="m370.855469 107.542969 8.875-13.316407 13.3125 8.875-8.875 13.316407zm0 0" data-original="#000000" class="active-path" data-old_color="#000000" fill="#C3935B"/><path d="m388.601562 80.921875 8.875-13.3125 13.3125 8.875-8.875 13.3125zm0 0" data-original="#000000" class="active-path" data-old_color="#000000" fill="#C3935B"/><path d="m401.503906 360h-16c0 17.648438-14.351562 32-32 32v16c17.648438 0 32 14.351562 32 32h16c0-17.648438 14.351563-32 32-32v-16c-17.648437 0-32-14.351562-32-32zm-8 53.519531c-3.558594-5.359375-8.160156-9.960937-13.519531-13.519531 5.359375-3.558594 9.960937-8.160156 13.519531-13.519531 3.558594 5.359375 8.160156 9.960937 13.519532 13.519531-5.359376 3.558594-9.960938 8.160156-13.519532 13.519531zm0 0" data-original="#000000" class="active-path" data-old_color="#000000" fill="#C3935B"/><path d="m49.503906 416h-16c0 17.648438-14.351562 32-32 32v16c17.648438 0 32 14.351562 32 32h16c0-17.648438 14.351563-32 32-32v-16c-17.648437 0-32-14.351562-32-32zm-8 53.519531c-3.558594-5.359375-8.160156-9.960937-13.519531-13.519531 5.359375-3.558594 9.960937-8.160156 13.519531-13.519531 3.558594 5.359375 8.160156 9.960937 13.519532 13.519531-5.359376 3.558594-9.960938 8.160156-13.519532 13.519531zm0 0" data-original="#000000" class="active-path" data-old_color="#000000" fill="#C3935B"/><path d="m465.503906 248h-16c0 17.648438-14.351562 32-32 32v16c17.648438 0 32 14.351562 32 32h16c0-17.648438 14.351563-32 32-32v-16c-17.648437 0-32-14.351562-32-32zm-8 53.519531c-3.558594-5.359375-8.160156-9.960937-13.519531-13.519531 5.359375-3.558594 9.960937-8.160156 13.519531-13.519531 3.558594 5.359375 8.160156 9.960937 13.519532 13.519531-5.359376 3.558594-9.960938 8.160156-13.519532 13.519531zm0 0" data-original="#000000" class="active-path" data-old_color="#000000" fill="#C3935B"/></g> </svg>
